<?xml version="1.0"?>
<svg version="1.1" id="Layer_1" xmlns="http://www.w3.org/2000/svg" xmlns:xlink="http://www.w3.org/1999/xlink" viewBox="0 0 512 512" xml:space="preserve">
<g>
	<g>
		<path d="M0,42.464v356h196v-16H16V113.888L256.016,260.56L496,112.784v277.68h16v-348H0z M496,94L255.984,241.808L16,95.136
			V58.464h480V94z"/>
	</g>
</g>
<g>
	<g>
		<path d="M389.6,416.912c29.264,0,55.424-27.392,55.424-74.096c0-52-36.432-89.984-90.608-89.984
			c-69.12,0-113.648,55.424-113.648,119.568c0,59.776,43.28,97.136,94.336,97.136c20.864,0,38.304-3.424,55.424-12.448
			l-4.976-13.392c-12.768,7.168-29.264,10.896-47.008,10.896c-46.08,0-80.016-32.064-80.016-84.064
			c0-63.2,42.656-103.376,93.408-103.376c48.256,0,75.344,32.384,75.344,77.536c0,36.112-17.744,57.296-33.632,56.976
			c-10.272-0.304-14.016-11.216-9.344-34.88l10.576-56.352c-8.096-3.744-19.92-6.544-33.312-6.544
			c-43.28,0-73.792,35.184-73.792,73.792c0,24.592,15.568,39.232,33.632,39.232c18.688,0,33.008-9.024,43.904-27.392h1.248
			C365.632,408.512,377.152,416.912,389.6,416.912z M328.88,400.096c-13.696,0-20.544-9.968-20.544-23.664
			c0-30.208,22.112-56.048,49.504-56.048c7.168,0,12.448,1.248,15.568,2.176l-6.544,35.2
			C363.44,377.056,346.944,400.096,328.88,400.096z"/>
	</g>
</g>
</svg>