<?xml version="1.0"?>
<svg version="1.1" xmlns="http://www.w3.org/2000/svg" xmlns:xlink="http://www.w3.org/1999/xlink" viewBox="0 0 512 512" xml:space="preserve">
<g>
	<g>
		<path d="M164.489,15.474H69.406c-13.625,0-24.709,10.446-24.709,23.287v434.477c0,12.84,11.084,23.287,24.709,23.287h95.084
			c13.624,0,24.708-10.447,24.708-23.289V38.762C189.198,25.921,178.114,15.474,164.489,15.474z M171.886,473.237
			c0,3.239-3.387,5.975-7.397,5.975H69.406c-4.009,0-7.397-2.736-7.397-5.975V38.762c0-3.239,3.387-5.975,7.397-5.975h95.083
			c4.01,0,7.397,2.735,7.397,5.975V473.237z"/>
	</g>
</g>
<g>
	<g>
		<path d="M459.998,88.419H228.579c-4.78,0-8.656,3.876-8.656,8.656v76.644c0,4.78,3.876,8.656,8.656,8.656h231.418
			c4.78,0,8.656-3.876,8.657-8.657V97.075C468.654,92.295,464.778,88.419,459.998,88.419z M451.341,165.064H237.235v-59.332h214.107
			V165.064z"/>
	</g>
</g>
<g>
	<g>
		<path d="M269.214,195.927h-32.921c-9.043,0-16.399,7.357-16.399,16.399v32.922c0,9.044,7.357,16.4,16.399,16.4h32.921
			c9.042,0,16.399-7.358,16.399-16.4v-32.922C285.614,203.284,278.257,195.927,269.214,195.927z M268.301,244.335h-31.095V213.24
			h31.095V244.335z"/>
	</g>
</g>
<g>
	<g>
		<path d="M452.255,195.927h-32.923c-9.041,0-16.398,7.357-16.398,16.399v32.922c0,9.044,7.357,16.4,16.398,16.4h32.923
			c9.042,0,16.398-7.358,16.398-16.4v-32.922C468.653,203.284,461.296,195.927,452.255,195.927z M451.34,244.335h-31.094V213.24
			h31.094V244.335z"/>
	</g>
</g>
<g>
	<g>
		<path d="M360.747,195.927h-32.922c-9.042,0-16.399,7.357-16.399,16.399v32.922c0,9.044,7.357,16.4,16.399,16.4h32.922
			c9.044,0,16.4-7.358,16.399-16.4v-32.922C377.147,203.284,369.79,195.927,360.747,195.927z M359.834,244.335h-31.095V213.24
			h31.095V244.335z"/>
	</g>
</g>
<g>
	<g>
		<path d="M269.214,279.153h-32.921c-9.043,0-16.399,7.357-16.399,16.399v32.922c0,9.043,7.357,16.399,16.399,16.399h32.921
			c9.042,0,16.399-7.357,16.399-16.399v-32.922C285.614,286.509,278.257,279.153,269.214,279.153z M268.301,327.561h-31.095v-31.095
			h31.095V327.561z"/>
	</g>
</g>
<g>
	<g>
		<path d="M452.255,279.153h-32.923c-9.041,0-16.398,7.357-16.398,16.399v32.922c0,9.043,7.357,16.399,16.398,16.399h32.923
			c9.042,0,16.398-7.357,16.398-16.399v-32.922C468.653,286.509,461.296,279.153,452.255,279.153z M451.34,327.561h-31.094v-31.095
			h31.094V327.561z"/>
	</g>
</g>
<g>
	<g>
		<path d="M360.747,279.153h-32.922c-9.042,0-16.399,7.357-16.399,16.399v32.922c0,9.043,7.357,16.399,16.399,16.399h32.922
			c9.044,0,16.4-7.357,16.399-16.399v-32.922C377.147,286.509,369.79,279.153,360.747,279.153z M359.834,327.561h-31.095v-31.095
			h31.095V327.561z"/>
	</g>
</g>
<g>
	<g>
		<path d="M269.214,357.883h-32.921c-9.043,0-16.399,7.357-16.399,16.399v32.922c0,9.043,7.357,16.399,16.399,16.399h32.921
			c9.042,0,16.399-7.357,16.399-16.399v-32.922C285.614,365.24,278.257,357.883,269.214,357.883z M268.301,406.291h-31.095v-31.095
			h31.095V406.291z"/>
	</g>
</g>
<g>
	<g>
		<path d="M452.255,357.883h-32.923c-9.041,0-16.398,7.357-16.398,16.399v32.922c0,9.043,7.357,16.399,16.398,16.399h32.923
			c9.042,0,16.398-7.357,16.398-16.399v-32.922C468.653,365.24,461.296,357.883,452.255,357.883z M451.34,406.291h-31.094v-31.095
			h31.094V406.291z"/>
	</g>
</g>
<g>
	<g>
		<path d="M360.747,357.883h-32.922c-9.042,0-16.399,7.357-16.399,16.399v32.922c0,9.043,7.357,16.399,16.399,16.399h32.922
			c9.044,0,16.4-7.357,16.399-16.399v-32.922C377.147,365.24,369.79,357.883,360.747,357.883z M359.834,406.291h-31.095v-31.095
			h31.095V406.291z"/>
	</g>
</g>
<g>
	<g>
		<path d="M53.353,53.258H21.069C9.452,53.258,0,62.749,0,74.417v363.191c0,11.666,9.452,21.158,21.069,21.158h32.283
			c4.781,0,8.656-3.876,8.656-8.656V61.914C62.009,57.133,58.133,53.258,53.353,53.258z M44.696,441.454H21.069
			c-2.036,0-3.757-1.762-3.757-3.847V74.417c0-2.121,1.685-3.847,3.757-3.847h23.627V441.454z"/>
	</g>
</g>
<g>
	<g>
		<path d="M490.841,53.258H180.542c-4.78,0-8.656,3.876-8.656,8.656v388.195c0,4.78,3.876,8.656,8.656,8.656h310.299
			c11.666,0,21.159-9.492,21.159-21.158V74.417C512,62.749,502.507,53.258,490.841,53.258z M494.688,437.606
			c0,2.049-1.797,3.847-3.847,3.847H189.198V70.57h301.643c2.085,0,3.847,1.762,3.847,3.847V437.606z"/>
	</g>
</g>
</svg>